<?xml version="1.0" ?><svg enable-background="new 0 0 100 100" id="Layer_1" version="1.1" viewBox="0 0 100 100" xml:space="preserve" xmlns="http://www.w3.org/2000/svg" xmlns:xlink="http://www.w3.org/1999/xlink"><path d="M73.446,5.796c-0.179-0.244-0.462-0.391-0.765-0.399L56.563,5.004c-0.47-0.041-0.842,0.281-0.965,0.709l-1.083,3.776  c-1.657-2.731-4.636-4.485-7.971-4.485c-4.049,0-7.581,2.578-8.848,6.359c-4.812,0.181-8.694,4.018-8.97,8.805h-1.383  c-0.541,0-0.979,0.438-0.979,0.979v38.579c0,9.014,5.942,16.663,14.113,19.245c0.861,2.969,0.959,5.956,0.292,8.894l-10.681,5.277  c-0.408,0.201-0.623,0.657-0.52,1.1c0.103,0.443,0.498,0.756,0.953,0.756h32.046c0.455,0,0.85-0.314,0.953-0.756  c0.104-0.443-0.112-0.899-0.52-1.1l-10.67-5.272c-0.611-2.961-0.497-5.956,0.34-8.92c8.14-2.6,14.054-10.232,14.054-19.223V21.146  c0-0.541-0.438-0.979-0.979-0.979h-1.393c-0.17-2.9-1.672-5.548-4.059-7.175l0.387-1.354l10.713,0.107  c0.475,0.015,0.83-0.285,0.951-0.71l1.256-4.39C73.682,6.354,73.626,6.041,73.446,5.796z M38.054,13.313l0.104,0.007  c0.09,0.008,0.18,0.014,0.27,0.014c0.451,0,0.844-0.308,0.951-0.747c0.809-3.313,3.756-5.626,7.165-5.626  c3.362,0,6.263,2.254,7.121,5.492l-2.212,7.714H30.684C30.964,16.342,34.158,13.313,38.054,13.313z M34.712,93.039l7.141-3.528  h9.383l7.141,3.528H34.712z M50.269,87.554h-7.427c0.499-2.662,0.427-5.353-0.196-8.034c1.263,0.248,2.565,0.386,3.899,0.386  c1.356,0,2.679-0.139,3.961-0.395C49.897,82.185,49.812,84.88,50.269,87.554z M64.766,59.725c0,8.115-5.335,15.003-12.68,17.355  c7.141-11.702,5.184-38.372,5.091-39.573c-0.042-0.54-0.519-0.939-1.051-0.901c-0.539,0.042-0.943,0.512-0.901,1.051  c0.023,0.304,2.227,30.336-6.011,40.073c-0.874,0.129-1.761,0.218-2.671,0.218c-0.91,0-1.797-0.089-2.671-0.218  c-8.238-9.737-6.034-39.769-6.011-40.073c0.042-0.539-0.362-1.009-0.901-1.051c-0.538-0.041-1.009,0.361-1.051,0.901  c-0.093,1.202-2.05,27.871,5.091,39.573c-7.345-2.352-12.68-9.239-12.68-17.354V22.125H52.19h4.754h7.823V59.725z M62.395,20.167  h-4.153l1.478-5.169C61.272,16.273,62.245,18.138,62.395,20.167z M70.666,9.781L59.953,9.674c-0.465,0.011-0.83,0.286-0.951,0.71  l-2.796,9.783h-2.717l3.782-13.188l14.097,0.345L70.666,9.781z"/></svg>